<svg width="48" height="48" viewBox="0 0 48 48" fill="none" xmlns="http://www.w3.org/2000/svg">
<path d="M32.38 4H15.62C8.34 4 4 8.34 4 15.62V32.36C4 39.66 8.34 44 15.62 44H32.36C39.64 44 43.98 39.66 43.98 32.38V15.62C44 8.34 39.66 4 32.38 4ZM34 34.5H14C13.18 34.5 12.5 33.82 12.5 33C12.5 32.18 13.18 31.5 14 31.5H34C34.82 31.5 35.5 32.18 35.5 33C35.5 33.82 34.82 34.5 34 34.5ZM34 25.5H14C13.18 25.5 12.5 24.82 12.5 24C12.5 23.18 13.18 22.5 14 22.5H34C34.82 22.5 35.5 23.18 35.5 24C35.5 24.82 34.82 25.5 34 25.5ZM34 16.5H14C13.18 16.5 12.5 15.82 12.5 15C12.5 14.18 13.18 13.5 14 13.5H34C34.82 13.5 35.5 14.18 35.5 15C35.5 15.82 34.82 16.5 34 16.5Z" fill="#5D50C6"/>
</svg>
